<svg width="83" height="81" viewBox="0 0 83 81" fill="none" xmlns="http://www.w3.org/2000/svg">
<path d="M55.3334 54L41.5 40.5M41.5 40.5L27.6667 54M41.5 40.5V70.875M70.5155 62.0663C73.8885 60.2717 76.5531 57.432 78.0888 53.9954C79.6244 50.5587 79.9436 46.7209 78.996 43.0876C78.0484 39.4543 75.8879 36.2324 72.8556 33.9304C69.8233 31.6284 66.0918 30.3775 62.25 30.375H57.8925C56.8458 26.4237 54.8947 22.7554 52.1861 19.6459C49.4775 16.5363 46.0818 14.0665 42.2543 12.4221C38.4268 10.7776 34.2671 10.0013 30.0879 10.1516C25.9088 10.3019 21.8189 11.3748 18.1258 13.2896C14.4327 15.2045 11.2324 17.9115 8.76561 21.2071C6.29882 24.5027 4.62968 28.3012 3.88368 32.317C3.13769 36.3327 3.33424 40.4613 4.45857 44.3923C5.58291 48.3232 7.60576 51.9543 10.375 55.0125" stroke="#1E1E1E" stroke-width="4" stroke-linecap="round" stroke-linejoin="round"/>
</svg>
